<svg width="27" height="19" viewBox="0 0 27 19" fill="#606060" xmlns="http://www.w3.org/2000/svg">
<path d="M11.205 2.14249C11.6446 1.66995 12.1776 1.29394 12.7702 1.03831C13.3628 0.78267 14.0021 0.652988 14.6475 0.657488C15.5007 0.640231 16.3423 0.857746 17.0804 1.28628C17.8184 1.71482 18.4245 2.3379 18.8325 3.08749C19.5849 2.78816 20.3854 2.62805 21.195 2.61499C22.7525 2.61499 24.2462 3.2337 25.3475 4.335C26.4488 5.43631 27.0675 6.93 27.0675 8.48749C27.0675 10.045 26.4488 11.5387 25.3475 12.64C24.2462 13.7413 22.7525 14.36 21.195 14.36L20.0475 14.225C19.6741 14.8856 19.1358 15.4381 18.4851 15.8285C17.8344 16.219 17.0936 16.4339 16.335 16.4525C15.6784 16.432 15.0339 16.2709 14.445 15.98C14.0823 16.8622 13.4646 17.616 12.6709 18.1451C11.8773 18.6742 10.9438 18.9545 9.99 18.95C8.99609 18.9379 8.0284 18.6295 7.21073 18.0644C6.39306 17.4992 5.76259 16.703 5.4 15.7775H4.5225C3.33466 15.7776 2.19446 15.3104 1.34824 14.4768C0.502017 13.6432 0.0177259 12.5102 -3.01564e-06 11.3225C-0.00820667 10.5221 0.193051 9.73343 0.583796 9.03483C0.974541 8.33622 1.54119 7.75195 2.2275 7.33999C1.95098 6.70117 1.81295 6.01102 1.8225 5.31499C1.8225 3.91862 2.3772 2.57945 3.36458 1.59207C4.35196 0.604692 5.69113 0.0499883 7.0875 0.0499883C7.89059 0.0471771 8.68283 0.23547 9.39878 0.599314C10.1147 0.963157 10.7339 1.49211 11.205 2.14249Z"/>
</svg>
