<svg
        width="62"
        height="62"
        viewBox="0 0 62 62"
        fill="#606060"
        xmlns="http://www.w3.org/2000/svg"
    >
        <path
            d="M15.72 6.45995C16.9727 6.45528 18.2093 6.74195 19.3322 7.29731C20.4551 7.85268 21.4334 8.66152 22.19 9.65995L24.67 12.8999L27.49 9.99995C28.1424 9.31016 28.9283 8.7603 29.7999 8.38381C30.6715 8.00732 31.6106 7.81207 32.56 7.80995C33.8259 7.82288 35.0657 8.17121 36.1531 8.81943C37.2405 9.46765 38.1365 10.3926 38.75 11.4999L40.31 14.2899L43.23 12.9999C44.4107 12.4471 45.6963 12.1538 47 12.1399C49.5099 12.1558 51.9108 13.1674 53.6752 14.9525C55.4397 16.7375 56.4233 19.1501 56.41 21.6599C56.4048 22.7473 56.2154 23.8259 55.85 24.8499C56.9077 25.4257 57.9117 26.0951 58.85 26.8499C59.7134 24.8761 60.0728 22.7187 59.8958 20.5716C59.7187 18.4245 59.0109 16.355 57.8358 14.5493C56.6607 12.7436 55.0553 11.2582 53.1639 10.2267C51.2725 9.19518 49.1544 8.64993 47 8.63995C45.208 8.64129 43.4363 9.01947 41.8 9.74995C40.8861 8.09754 39.5481 6.71868 37.924 5.75544C36.2999 4.79221 34.4483 4.27943 32.56 4.26995C31.1452 4.27599 29.7463 4.56788 28.4472 5.12809C27.148 5.6883 25.9755 6.50527 25 7.52995C23.2875 5.24649 20.7951 3.67252 17.9973 3.1077C15.1994 2.54288 12.2916 3.02664 9.82736 4.4669C7.36311 5.90715 5.51455 8.20331 4.63361 10.9182C3.75267 13.6331 3.90087 16.5772 5.05 19.1899C3.14168 20.3085 1.6524 22.0215 0.810062 24.0669C-0.032277 26.1122 -0.181285 28.3772 0.385839 30.5153C0.952963 32.6533 2.20498 34.5467 3.95031 35.9056C5.69564 37.2646 7.83815 38.0142 10.05 38.0399C10.7224 38.0347 11.3925 37.961 12.05 37.8199C12.8189 39.8774 14.1984 41.6506 16.0037 42.9018C17.8089 44.153 19.9536 44.8223 22.15 44.8199C23.1654 44.8209 24.1757 44.6761 25.15 44.3899C25.15 43.8699 25.07 43.3899 25.07 42.8199C25.07 42.0899 25.07 41.3699 25.18 40.6499C24.2397 41.086 23.2165 41.3145 22.18 41.3199C20.6952 41.3145 19.2475 40.8557 18.0305 40.0051C16.8135 39.1544 15.8853 37.9525 15.37 36.5599L14.32 33.7199L11.32 34.3499C10.3662 34.5517 9.37911 34.5357 8.43235 34.303C7.48558 34.0703 6.60353 33.627 5.85189 33.0061C5.10025 32.3852 4.49841 31.6026 4.0912 30.7168C3.68398 29.831 3.4819 28.8647 3.5 27.8899C3.49919 26.7354 3.79945 25.6005 4.37114 24.5975C4.94284 23.5944 5.76621 22.7577 6.76 22.1699L9.5 20.6499L8.26 17.7999C7.72884 16.564 7.51269 15.2155 7.63091 13.8755C7.74913 12.5354 8.19803 11.2457 8.93737 10.1218C9.67671 8.9979 10.6834 8.07505 11.8671 7.43596C13.0509 6.79687 14.3747 6.46151 15.72 6.45995Z"
        ></path>
        <path
            d="M45.78 26.7C42.5814 26.698 39.4542 27.6446 36.7937 29.4202C34.1332 31.1958 32.0591 33.7205 30.8337 36.675C29.6083 39.6295 29.2867 42.8811 29.9095 46.0184C30.5323 49.1558 32.0715 52.0379 34.3325 54.3003C36.5936 56.5627 39.4748 58.1038 42.6117 58.7285C45.7487 59.3532 49.0004 59.0336 51.9557 57.81C54.9109 56.5865 57.4369 54.5139 59.2142 51.8546C60.9914 49.1952 61.94 46.0685 61.94 42.87C61.94 38.5831 60.2377 34.4717 57.2074 31.4396C54.1771 28.4074 50.0668 26.7026 45.78 26.7ZM45.78 55.54C43.2737 55.5419 40.8231 54.8005 38.7382 53.4095C36.6533 52.0185 35.0278 50.0405 34.0673 47.7255C33.1068 45.4105 32.8545 42.8627 33.3422 40.4043C33.83 37.9459 35.0359 35.6874 36.8074 33.9145C38.579 32.1415 40.8365 30.9338 43.2945 30.4441C45.7525 29.9545 48.3006 30.2048 50.6163 31.1634C52.932 32.1221 54.9114 33.7461 56.304 35.8298C57.6967 37.9136 58.44 40.3636 58.44 42.87C58.4347 46.2269 57.0995 49.445 54.7267 51.8196C52.354 54.1943 49.1369 55.532 45.78 55.54Z"
        ></path>
        <path
            d="M48 36.3899C47.2629 36.0224 46.4443 35.849 45.6215 35.8862C44.7987 35.9233 43.999 36.1699 43.2981 36.6024C42.5972 37.035 42.0183 37.6393 41.6161 38.358C41.214 39.0768 41.0019 39.8863 41 40.7099C41.0005 40.9938 41.0756 41.2726 41.2178 41.5183C41.3599 41.764 41.5642 41.968 41.81 42.11C42.0544 42.2522 42.3322 42.3272 42.615 42.3272C42.8978 42.3272 43.1756 42.2522 43.42 42.11C43.6658 41.968 43.8701 41.764 44.0122 41.5183C44.1544 41.2726 44.2295 40.9938 44.23 40.7099C44.2412 40.2994 44.408 39.9084 44.6965 39.6161C44.9851 39.3238 45.3739 39.152 45.7842 39.1355C46.1946 39.119 46.596 39.259 46.9071 39.5271C47.2182 39.7953 47.4158 40.1716 47.46 40.58C47.4675 40.8589 47.4045 41.1353 47.2769 41.3835C47.1493 41.6317 46.9612 41.8437 46.73 41.9999C46.086 42.4639 45.5305 43.0397 45.09 43.7C44.8844 44.0576 44.823 44.4802 44.9183 44.8815C45.0136 45.2829 45.2584 45.6328 45.6028 45.8598C45.9472 46.0869 46.3653 46.174 46.7717 46.1034C47.1781 46.0328 47.5423 45.8098 47.79 45.4799C48.0204 45.1398 48.308 44.842 48.64 44.5999C49.3061 44.113 49.8367 43.4639 50.1813 42.7142C50.5259 41.9645 50.6731 41.1391 50.609 40.3165C50.5449 39.4939 50.2715 38.7013 49.8149 38.0141C49.3583 37.3269 48.7335 36.7678 48 36.3899Z"
        ></path>
        <path
            d="M45.78 47.18C45.3501 47.1808 44.9375 47.3495 44.63 47.65C44.4806 47.7998 44.3622 47.9776 44.2815 48.1732C44.2009 48.3688 44.1596 48.5784 44.16 48.79C44.1573 49.0034 44.1974 49.2153 44.2778 49.4131C44.3583 49.6108 44.4775 49.7905 44.6285 49.9415C44.7795 50.0924 44.9591 50.2117 45.1569 50.2921C45.3547 50.3726 45.5665 50.4126 45.78 50.41C45.9916 50.4104 46.2012 50.3691 46.3968 50.2884C46.5924 50.2078 46.7702 50.0894 46.92 49.94C47.2205 49.6325 47.3891 49.2199 47.39 48.79C47.3913 48.5782 47.3506 48.3682 47.2701 48.1723C47.1897 47.9763 47.0712 47.7983 46.9214 47.6486C46.7716 47.4988 46.5936 47.3803 46.3977 47.2998C46.2018 47.2194 45.9918 47.1786 45.78 47.18Z"
        ></path>
    </svg>